<svg width="32" height="32" viewBox="0 0 32 32" fill="none" xmlns="http://www.w3.org/2000/svg">
  <defs>
    <!-- Sharp Glow for the Edge only -->
    <filter id="edge-glow" x="-20%" y="-20%" width="140%" height="140%" filterUnits="userSpaceOnUse">
      <feGaussianBlur stdDeviation="0.8" result="blur" />
      <feFlood flood-color="#00FFF0" flood-opacity="0.6" result="color" />
      <feComposite in="color" in2="blur" operator="in" result="glow" />
      <feMerge>
        <feMergeNode in="glow" />
        <feMergeNode in="SourceGraphic" />
      </feMerge>
    </filter>

    <linearGradient id="glass-gradient" x1="0%" y1="0%" x2="100%" y2="100%">
      <stop offset="0%" stop-color="white" stop-opacity="0.4" />
      <stop offset="100%" stop-color="white" stop-opacity="0.1" />
    </linearGradient>
  </defs>

  <!-- NO BACKGROUND CIRCLES/RECTS -->

  <!-- Transparent Glass Body -->
  <path d="M7 4C7 3.44772 7.44772 3 8 3H17C23.0751 3 28 7.92487 28 14C28 20.0751 23.0751 25 17 25H8C7.44772 25 7 24.5523 7 24V4Z" 
        fill="url(#glass-gradient)" />
  
  <!-- Content/Detail: Inner 'D' Highlight -->
  <path d="M12 7V21C12 21.5523 12.4477 22 13 22H17C21.4183 22 25 18.4183 25 14C25 9.58172 21.4183 6 17 6H13C12.4477 6 12 6.44772 12 7Z" 
        stroke="white" stroke-opacity="0.3" stroke-width="0.5" />
  
  <!-- The Main High-Contrast Neon-Edge Stroke -->
  <path d="M7 4C7 3.44772 7.44772 3 8 3H17C23.0751 3 28 7.92487 28 14C28 20.0751 23.0751 25 17 25H8C7.44772 25 7 24.5523 7 24V4Z" 
        stroke="white" stroke-width="2.5" stroke-linecap="round" filter="url(#edge-glow)" />

  <!-- Sharp Cyan Accent for recognition -->
  <path d="M7 4V12M7 4H15" stroke="#00FFF0" stroke-width="2.5" stroke-linecap="round" />
</svg>